<svg xmlns="http://www.w3.org/2000/svg" viewBox="0 0 1200 800" preserveAspectRatio="xMidYMid slice">
  <rect width="1200" height="800" fill="#ead9b8"/>
  <circle cx="1010" cy="150" r="64" fill="#e2a83f"/>
  <path d="M0 560 L1200 560 L1200 800 L0 800 Z" fill="#c9973d" opacity="0.35"/>
  <g>
    <rect x="180" y="240" width="840" height="26" fill="#8a5a37"/>
    <g>
      <path d="M180 240 h120 v70 q-60 26 -120 0 Z" fill="#bf5f38"/>
      <path d="M300 240 h120 v70 q-60 26 -120 0 Z" fill="#f2ead6"/>
      <path d="M420 240 h120 v70 q-60 26 -120 0 Z" fill="#bf5f38"/>
      <path d="M540 240 h120 v70 q-60 26 -120 0 Z" fill="#f2ead6"/>
      <path d="M660 240 h120 v70 q-60 26 -120 0 Z" fill="#bf5f38"/>
      <path d="M780 240 h120 v70 q-60 26 -120 0 Z" fill="#f2ead6"/>
      <path d="M900 240 h120 v70 q-60 26 -120 0 Z" fill="#bf5f38"/>
    </g>
    <rect x="196" y="266" width="18" height="380" fill="#8a5a37"/>
    <rect x="986" y="266" width="18" height="380" fill="#8a5a37"/>
  </g>
  <rect x="150" y="560" width="900" height="34" fill="#8a5a37"/>
  <rect x="180" y="594" width="840" height="130" fill="#6d4a33"/>
  <path d="M240 560 q-40 -36 -16 -84 q30 10 34 52 q26 -30 58 -22 q-2 44 -46 54 Z" fill="#496f52"/>
  <g>
    <rect x="330" y="470" width="110" height="90" rx="10" fill="#f2ead6"/>
    <rect x="330" y="470" width="110" height="26" rx="10" fill="#bf5f38"/>
    <circle cx="385" cy="530" r="20" fill="#e2a83f"/>
  </g>
  <g>
    <rect x="480" y="440" width="90" height="120" rx="45" fill="#f2ead6"/>
    <rect x="505" y="424" width="40" height="24" rx="8" fill="#496f52"/>
    <circle cx="525" cy="510" r="24" fill="#c9973d"/>
  </g>
  <g>
    <rect x="610" y="470" width="110" height="90" rx="10" fill="#f2ead6"/>
    <rect x="610" y="470" width="110" height="26" rx="10" fill="#496f52"/>
    <circle cx="665" cy="530" r="20" fill="#bf5f38"/>
  </g>
  <g>
    <rect x="760" y="440" width="90" height="120" rx="45" fill="#f2ead6"/>
    <rect x="785" y="424" width="40" height="24" rx="8" fill="#bf5f38"/>
    <circle cx="805" cy="510" r="24" fill="#496f52"/>
  </g>
  <g>
    <path d="M880 560 l50 -100 l50 100 Z" fill="#c9973d"/>
    <path d="M905 560 l25 -52 l25 52 Z" fill="#e2a83f"/>
  </g>
  <rect x="330" y="640" width="540" height="44" rx="22" fill="#f2ead6" opacity="0.9"/>
  <g fill="#8a5a37">
    <circle cx="370" cy="662" r="8"/>
    <rect x="396" y="654" width="180" height="7" rx="3.5"/>
    <rect x="396" y="668" width="120" height="7" rx="3.5"/>
    <rect x="640" y="654" width="190" height="7" rx="3.5"/>
    <rect x="640" y="668" width="130" height="7" rx="3.5"/>
  </g>
</svg>
